<svg width="24" height="14" viewBox="0 0 24 14" fill="none" xmlns="http://www.w3.org/2000/svg">
<path d="M7.78613 8.70215H9.56152V10.0293H7.78613V13H6.15137V10.0293H0.324219V9.07129L6.05469 0.203125H7.78613V8.70215ZM2.16992 8.70215H6.15137V2.42676L5.95801 2.77832L2.16992 8.70215ZM11.2314 12.1475C11.2314 11.8662 11.3135 11.6318 11.4775 11.4443C11.6475 11.2568 11.8994 11.1631 12.2334 11.1631C12.5674 11.1631 12.8193 11.2568 12.9893 11.4443C13.165 11.6318 13.2529 11.8662 13.2529 12.1475C13.2529 12.417 13.165 12.6426 12.9893 12.8242C12.8193 13.0059 12.5674 13.0967 12.2334 13.0967C11.8994 13.0967 11.6475 13.0059 11.4775 12.8242C11.3135 12.6426 11.2314 12.417 11.2314 12.1475ZM22.1562 0.194336V1.57422H21.8574C20.5918 1.59766 19.584 1.97266 18.834 2.69922C18.084 3.42578 17.6504 4.44824 17.5332 5.7666C18.207 4.99316 19.127 4.60645 20.293 4.60645C21.4062 4.60645 22.2939 4.99902 22.9561 5.78418C23.624 6.56934 23.958 7.58301 23.958 8.8252C23.958 10.1436 23.5977 11.1982 22.877 11.9893C22.1621 12.7803 21.2012 13.1758 19.9941 13.1758C18.7695 13.1758 17.7764 12.707 17.0146 11.7695C16.2529 10.8262 15.8721 9.61328 15.8721 8.13086V7.50684C15.8721 5.15137 16.373 3.35254 17.375 2.11035C18.3828 0.862305 19.8799 0.223633 21.8662 0.194336H22.1562ZM20.0205 5.95996C19.4639 5.95996 18.9512 6.12695 18.4824 6.46094C18.0137 6.79492 17.6885 7.21387 17.5068 7.71777V8.31543C17.5068 9.37012 17.7441 10.2197 18.2188 10.8643C18.6934 11.5088 19.2852 11.8311 19.9941 11.8311C20.7266 11.8311 21.3008 11.5615 21.7168 11.0225C22.1387 10.4834 22.3496 9.77734 22.3496 8.9043C22.3496 8.02539 22.1357 7.31641 21.708 6.77734C21.2861 6.23242 20.7236 5.95996 20.0205 5.95996Z" fill="black"/>
</svg>
