<svg width="25" height="14" viewBox="0 0 25 14" fill="none" xmlns="http://www.w3.org/2000/svg">
<path d="M7.78613 8.70215H9.56152V10.0293H7.78613V13H6.15137V10.0293H0.324219V9.07129L6.05469 0.203125H7.78613V8.70215ZM2.16992 8.70215H6.15137V2.42676L5.95801 2.77832L2.16992 8.70215ZM11.2314 12.1475C11.2314 11.8662 11.3135 11.6318 11.4775 11.4443C11.6475 11.2568 11.8994 11.1631 12.2334 11.1631C12.5674 11.1631 12.8193 11.2568 12.9893 11.4443C13.165 11.6318 13.2529 11.8662 13.2529 12.1475C13.2529 12.417 13.165 12.6426 12.9893 12.8242C12.8193 13.0059 12.5674 13.0967 12.2334 13.0967C11.8994 13.0967 11.6475 13.0059 11.4775 12.8242C11.3135 12.6426 11.2314 12.417 11.2314 12.1475ZM24.0371 1.11719L18.7373 13H17.0322L22.3145 1.53906H15.3887V0.203125H24.0371V1.11719Z" fill="black"/>
</svg>
