<svg width="24" height="14" viewBox="0 0 24 14" fill="none" xmlns="http://www.w3.org/2000/svg">
<path d="M7.78613 8.70215H9.56152V10.0293H7.78613V13H6.15137V10.0293H0.324219V9.07129L6.05469 0.203125H7.78613V8.70215ZM2.16992 8.70215H6.15137V2.42676L5.95801 2.77832L2.16992 8.70215ZM11.2314 12.1475C11.2314 11.8662 11.3135 11.6318 11.4775 11.4443C11.6475 11.2568 11.8994 11.1631 12.2334 11.1631C12.5674 11.1631 12.8193 11.2568 12.9893 11.4443C13.165 11.6318 13.2529 11.8662 13.2529 12.1475C13.2529 12.417 13.165 12.6426 12.9893 12.8242C12.8193 13.0059 12.5674 13.0967 12.2334 13.0967C11.8994 13.0967 11.6475 13.0059 11.4775 12.8242C11.3135 12.6426 11.2314 12.417 11.2314 12.1475ZM22.0068 7.375C21.667 7.7793 21.2598 8.10449 20.7852 8.35059C20.3164 8.59668 19.8008 8.71973 19.2383 8.71973C18.5 8.71973 17.8555 8.53809 17.3047 8.1748C16.7598 7.81152 16.3379 7.30176 16.0391 6.64551C15.7402 5.9834 15.5908 5.25391 15.5908 4.45703C15.5908 3.60156 15.752 2.83105 16.0742 2.14551C16.4023 1.45996 16.8652 0.935547 17.4629 0.572266C18.0605 0.208984 18.7578 0.0273438 19.5547 0.0273438C20.8203 0.0273438 21.8164 0.501953 22.543 1.45117C23.2754 2.39453 23.6416 3.68359 23.6416 5.31836V5.79297C23.6416 8.2832 23.1494 10.1025 22.165 11.251C21.1807 12.3936 19.6953 12.9795 17.709 13.0088H17.3926V11.6377H17.7354C19.0771 11.6143 20.1084 11.2656 20.8291 10.5918C21.5498 9.91211 21.9424 8.83984 22.0068 7.375ZM19.502 7.375C20.0469 7.375 20.5479 7.20801 21.0049 6.87402C21.4678 6.54004 21.8047 6.12695 22.0156 5.63477V4.98438C22.0156 3.91797 21.7842 3.05078 21.3213 2.38281C20.8584 1.71484 20.2725 1.38086 19.5635 1.38086C18.8486 1.38086 18.2744 1.65625 17.8408 2.20703C17.4072 2.75195 17.1904 3.47266 17.1904 4.36914C17.1904 5.24219 17.3984 5.96289 17.8145 6.53125C18.2363 7.09375 18.7988 7.375 19.502 7.375Z" fill="black"/>
</svg>
