<svg width="24" height="14" viewBox="0 0 24 14" fill="none" xmlns="http://www.w3.org/2000/svg">
<path d="M7.78613 8.70215H9.56152V10.0293H7.78613V13H6.15137V10.0293H0.324219V9.07129L6.05469 0.203125H7.78613V8.70215ZM2.16992 8.70215H6.15137V2.42676L5.95801 2.77832L2.16992 8.70215ZM11.2314 12.1475C11.2314 11.8662 11.3135 11.6318 11.4775 11.4443C11.6475 11.2568 11.8994 11.1631 12.2334 11.1631C12.5674 11.1631 12.8193 11.2568 12.9893 11.4443C13.165 11.6318 13.2529 11.8662 13.2529 12.1475C13.2529 12.417 13.165 12.6426 12.9893 12.8242C12.8193 13.0059 12.5674 13.0967 12.2334 13.0967C11.8994 13.0967 11.6475 13.0059 11.4775 12.8242C11.3135 12.6426 11.2314 12.417 11.2314 12.1475ZM23.5361 3.54297C23.5361 4.18164 23.3662 4.75 23.0264 5.24805C22.6924 5.74609 22.2383 6.13574 21.6641 6.41699C22.332 6.7041 22.8594 7.12305 23.2461 7.67383C23.6387 8.22461 23.835 8.84863 23.835 9.5459C23.835 10.6533 23.46 11.5352 22.71 12.1914C21.9658 12.8477 20.9844 13.1758 19.7656 13.1758C18.5352 13.1758 17.5479 12.8477 16.8037 12.1914C16.0654 11.5293 15.6963 10.6475 15.6963 9.5459C15.6963 8.85449 15.8838 8.23047 16.2588 7.67383C16.6396 7.11719 17.1641 6.69531 17.832 6.4082C17.2637 6.12695 16.8154 5.7373 16.4873 5.23926C16.1592 4.74121 15.9951 4.17578 15.9951 3.54297C15.9951 2.46484 16.3408 1.60938 17.0322 0.976562C17.7236 0.34375 18.6348 0.0273438 19.7656 0.0273438C20.8906 0.0273438 21.7988 0.34375 22.4902 0.976562C23.1875 1.60938 23.5361 2.46484 23.5361 3.54297ZM22.209 9.51074C22.209 8.7959 21.9805 8.21289 21.5234 7.76172C21.0723 7.31055 20.4805 7.08496 19.748 7.08496C19.0156 7.08496 18.4268 7.30762 17.9814 7.75293C17.542 8.19824 17.3223 8.78418 17.3223 9.51074C17.3223 10.2373 17.5361 10.8086 17.9639 11.2246C18.3975 11.6406 18.998 11.8486 19.7656 11.8486C20.5273 11.8486 21.125 11.6406 21.5586 11.2246C21.9922 10.8027 22.209 10.2314 22.209 9.51074ZM19.7656 1.36328C19.127 1.36328 18.6084 1.5625 18.21 1.96094C17.8174 2.35352 17.6211 2.88965 17.6211 3.56934C17.6211 4.21973 17.8145 4.74707 18.2012 5.15137C18.5938 5.5498 19.1152 5.74902 19.7656 5.74902C20.416 5.74902 20.9346 5.5498 21.3213 5.15137C21.7139 4.74707 21.9102 4.21973 21.9102 3.56934C21.9102 2.91895 21.708 2.38867 21.3037 1.97852C20.8994 1.56836 20.3867 1.36328 19.7656 1.36328Z" fill="black"/>
</svg>
